<?xml version="1.0" standalone="no"?>
<!DOCTYPE svg PUBLIC "-//W3C//DTD SVG 20010904//EN"
 "http://www.w3.org/TR/2001/REC-SVG-20010904/DTD/svg10.dtd">
<svg version="1.0" xmlns="http://www.w3.org/2000/svg"
 width="300.000000pt" height="290.000000pt" viewBox="0 0 300.000000 290.000000"
 preserveAspectRatio="xMidYMid meet">

<g transform="translate(0.000000,290.000000) scale(0.100000,-0.100000)"
fill="#000000" stroke="none">
<path d="M31 2893 c0 -5 4 -17 8 -28 7 -17 8 -17 13 8 4 19 1 27 -8 27 -8 0
-14 -3 -13 -7z"/>
<path d="M1896 2891 c-3 -5 1 -11 9 -14 9 -4 12 -1 8 9 -6 16 -10 17 -17 5z"/>
<path d="M2758 2893 c7 -3 16 -2 19 1 4 3 -2 6 -13 5 -11 0 -14 -3 -6 -6z"/>
<path d="M178 2883 c7 -3 16 -2 19 1 4 3 -2 6 -13 5 -11 0 -14 -3 -6 -6z"/>
<path d="M1828 2883 c6 -2 18 -2 25 0 6 3 1 5 -13 5 -14 0 -19 -2 -12 -5z"/>
<path d="M908 2868 c5 -5 16 -8 23 -6 8 3 3 7 -10 11 -17 4 -21 3 -13 -5z"/>
<path d="M2103 2873 c9 -2 23 -2 30 0 6 3 -1 5 -18 5 -16 0 -22 -2 -12 -5z"/>
<path d="M2228 2873 c6 -2 18 -2 25 0 6 3 1 5 -13 5 -14 0 -19 -2 -12 -5z"/>
<path d="M2744 2868 c-4 -6 -3 -8 4 -4 5 3 12 1 14 -6 3 -8 6 -9 11 -1 4 6 0
13 -8 17 -8 3 -17 0 -21 -6z"/>
<path d="M2817 2874 c-3 -5 1 -15 9 -22 16 -14 18 -5 5 17 -5 7 -11 9 -14 5z"/>
<path d="M1568 2853 c7 -3 16 -2 19 1 4 3 -2 6 -13 5 -11 0 -14 -3 -6 -6z"/>
<path d="M528 2843 c7 -3 16 -2 19 1 4 3 -2 6 -13 5 -11 0 -14 -3 -6 -6z"/>
<path d="M668 2843 c7 -3 16 -2 19 1 4 3 -2 6 -13 5 -11 0 -14 -3 -6 -6z"/>
<path d="M908 2833 c6 -2 18 -2 25 0 6 3 1 5 -13 5 -14 0 -19 -2 -12 -5z"/>
<path d="M978 2833 c6 -2 18 -2 25 0 6 3 1 5 -13 5 -14 0 -19 -2 -12 -5z"/>
<path d="M1398 2823 c7 -3 16 -2 19 1 4 3 -2 6 -13 5 -11 0 -14 -3 -6 -6z"/>
<path d="M1618 2823 c7 -3 16 -2 19 1 4 3 -2 6 -13 5 -11 0 -14 -3 -6 -6z"/>
<path d="M168 2813 c6 -2 18 -2 25 0 6 3 1 5 -13 5 -14 0 -19 -2 -12 -5z"/>
<path d="M1858 2813 c7 -3 16 -2 19 1 4 3 -2 6 -13 5 -11 0 -14 -3 -6 -6z"/>
<path d="M2347 2808 c2 -5 13 -8 23 -8 10 0 21 3 23 8 3 4 -8 7 -23 7 -15 0
-26 -3 -23 -7z"/>
<path d="M0 2608 c0 -197 6 -238 29 -224 6 4 11 3 11 -3 0 -5 -8 -12 -17 -15
-10 -3 6 -4 35 -2 28 2 52 -1 52 -5 0 -5 -10 -9 -22 -10 -22 -1 -22 -1 2 -8
l25 -7 -25 -8 c-14 -5 -28 -9 -32 -10 -3 0 -10 -5 -15 -9 -4 -5 -3 -8 2 -7 27
6 35 -1 30 -27 l-4 -28 154 3 c86 2 168 -2 187 -7 25 -8 -10 -10 -133 -6 -92
2 -192 1 -223 -2 l-56 -6 0 -154 0 -153 193 -1 c105 0 207 -1 225 -2 36 -2 57
-24 41 -43 -12 -15 31 -27 65 -18 19 4 24 12 23 32 l-2 26 282 0 c154 1 277
-2 271 -5 -5 -3 0 -9 11 -12 21 -5 30 -27 11 -27 -23 0 -32 -54 -19 -115 6
-33 16 -65 21 -72 5 -7 5 -13 -2 -16 -6 -3 -5 -4 2 -3 7 2 12 10 11 17 -2 10
7 15 25 16 15 0 20 -1 11 -4 -21 -5 -32 -43 -17 -60 6 -7 19 -13 29 -13 11 0
19 -6 19 -13 0 -7 13 -39 30 -72 34 -70 35 -73 12 -101 -17 -20 -25 -21 -146
-17 -88 3 -126 1 -121 -6 3 -6 0 -9 -8 -5 -7 2 -32 1 -55 -4 -23 -6 -42 -6
-44 -1 -2 4 -39 1 -83 -6 -103 -19 -227 -19 -307 -1 -35 8 -115 16 -179 18
-65 2 -115 6 -112 11 2 4 -39 7 -91 7 l-96 0 0 -60 c0 -41 4 -60 13 -61 30 -4
68 -5 147 -7 59 -2 80 -5 70 -12 -22 -14 -3 -12 20 3 17 10 22 9 31 -3 8 -11
12 -12 16 -2 3 7 20 11 41 11 31 -2 32 -3 10 -6 -28 -4 -40 -23 -15 -23 7 -1
5 -6 -5 -14 -10 -7 -15 -16 -11 -19 3 -4 -14 -8 -38 -9 -40 -1 -41 -2 -9 -5
19 -3 39 -9 44 -14 14 -12 216 -12 216 1 0 6 -6 10 -13 10 -8 0 -24 9 -37 20
-24 21 -40 18 -40 -7 0 -11 -6 -14 -22 -9 -13 3 -34 6 -48 7 -23 1 -23 2 5 9
l30 8 -27 1 c-18 1 -28 7 -28 17 0 13 10 15 65 9 58 -5 64 -4 58 11 -5 14 -1
15 38 9 24 -4 47 -13 51 -19 5 -7 8 -5 8 6 0 9 -6 18 -12 21 -7 3 -3 4 9 4 12
-1 19 -5 17 -9 -8 -12 10 -10 23 3 7 7 15 6 26 -5 12 -12 17 -13 20 -3 4 9 7
9 14 0 5 -8 14 -9 23 -3 9 5 19 5 27 -2 9 -7 13 -7 13 1 0 8 50 11 178 9 173
-3 178 -4 151 -20 -15 -9 -45 -20 -66 -24 -21 -4 -70 -24 -109 -44 -40 -21
-91 -41 -115 -45 -24 -4 -53 -14 -64 -21 -12 -8 -37 -15 -57 -16 -20 -2 -34
-6 -31 -10 2 -5 -5 -8 -16 -8 -27 0 -44 -34 -51 -100 -4 -48 -8 -55 -28 -58
-12 -2 -20 -8 -17 -13 4 -5 -6 -9 -21 -9 -22 0 -25 2 -14 15 7 8 23 15 35 15
13 0 26 7 29 16 8 21 8 24 -4 24 -5 0 -10 -7 -10 -15 0 -8 -7 -15 -16 -15 -13
0 -11 6 9 24 25 23 25 24 5 29 -12 3 -34 3 -49 0 -16 -3 -29 -1 -29 4 0 13 68
36 81 27 6 -3 15 0 20 7 13 20 11 29 -6 29 -8 0 -15 -6 -15 -12 0 -9 -3 -10
-8 -2 -5 8 -80 11 -247 9 -132 -1 -245 -3 -252 -4 -15 -1 -15 -126 -1 -153 6
-12 5 -18 -2 -18 -17 0 -9 -128 8 -135 10 -3 12 0 8 10 -7 20 4 19 33 -4 18
-14 21 -20 11 -26 -9 -5 -11 -4 -6 3 4 7 2 12 -3 12 -6 0 -11 -5 -11 -11 0 -5
-10 -9 -22 -7 l-23 3 -3 -175 c-2 -158 -1 -172 13 -155 12 16 14 17 9 3 -3
-10 -1 -18 5 -18 6 0 8 -6 5 -14 -3 -8 -12 -12 -19 -10 -10 4 -13 -22 -13
-125 0 -85 3 -131 10 -131 7 0 6 -5 -1 -14 -7 -8 -8 -17 -4 -19 10 -6 35 7 34
17 -1 3 2 5 7 4 4 -2 6 -8 6 -15 -1 -7 1 -12 5 -11 24 3 51 -4 51 -13 0 -5 -5
-7 -10 -4 -6 4 -18 1 -26 -6 -8 -6 -17 -9 -21 -5 -3 3 -1 6 5 6 7 0 12 4 12 8
0 7 -34 8 -50 2 -3 -1 -8 -2 -12 -1 -3 0 -6 -14 -5 -31 2 -34 21 -49 30 -24 4
11 1 13 -11 9 -14 -5 -15 -3 -5 7 10 11 16 11 31 -3 23 -21 32 -21 32 -3 0 8
5 18 12 22 6 4 8 3 4 -4 -3 -6 -2 -14 4 -17 8 -5 7 -12 -2 -23 -10 -14 -10
-15 2 -5 10 9 17 10 27 1 7 -6 17 -8 21 -4 4 4 -1 13 -10 20 -17 12 -15 26 4
26 5 0 6 -5 2 -12 -5 -8 -2 -9 12 -3 10 4 27 7 37 7 21 -1 22 11 2 28 -8 7
-15 8 -15 3 0 -5 -7 -10 -15 -10 -8 0 -15 9 -15 19 0 10 3 17 7 16 5 0 16 2
26 7 13 5 15 10 7 15 -10 6 -10 12 0 26 11 18 11 18 6 -1 l-6 -20 16 20 c16
20 16 20 10 -2 -6 -18 -3 -20 13 -16 11 3 19 8 18 12 -1 3 8 17 20 30 13 14
20 27 17 30 -4 3 -9 0 -11 -7 -3 -6 -9 -10 -14 -6 -19 11 -8 22 20 20 26 -2
29 1 26 26 -3 18 2 31 13 37 14 8 14 11 2 28 -8 10 -10 15 -6 11 5 -5 14 2 21
15 6 12 17 21 23 19 7 -1 12 2 12 7 0 13 -30 22 -43 14 -20 -13 -48 -11 -37 2
5 7 9 14 7 16 -1 2 3 -1 9 -8 14 -16 27 -4 14 12 -8 9 -6 14 6 19 12 4 15 2
10 -9 -4 -11 1 -14 17 -11 12 1 23 10 25 19 3 17 -13 24 -21 10 -2 -5 -2 -2 0
6 2 10 -7 12 -36 9 -24 -2 -37 1 -35 7 5 13 84 13 104 0 13 -8 13 -6 1 8 -12
15 -11 17 3 17 9 0 16 4 16 10 0 5 -7 7 -15 3 -9 -3 -15 -2 -14 3 4 25 -2 36
-20 31 -13 -3 -18 -1 -14 8 6 17 43 15 43 -2 0 -7 6 -13 14 -13 23 0 26 -39 4
-76 -16 -28 -18 -39 -9 -64 7 -23 6 -40 -4 -71 -8 -23 -15 -55 -15 -72 0 -18
-9 -41 -22 -54 -27 -29 -30 -49 -13 -84 22 -41 -3 -58 -93 -61 -40 -2 -72 -6
-72 -10 0 -4 134 -7 299 -8 291 0 299 0 304 20 6 25 29 27 25 3 -3 -17 20 -18
343 -21 l347 -2 -33 117 c-19 65 -42 150 -53 188 -11 39 -36 128 -56 200 -51
183 -104 450 -116 591 -10 114 -5 277 10 318 6 17 8 15 13 -10 7 -36 87 -183
134 -243 39 -52 54 -59 138 -60 126 -2 156 21 221 169 31 72 36 96 36 157 0
56 5 82 24 119 13 26 24 57 24 68 0 27 9 40 38 55 12 6 22 16 22 21 0 10 -30
-3 -65 -30 -18 -14 -19 -14 -6 3 7 9 11 18 7 18 -3 1 -10 3 -16 4 -5 1 -14 3
-20 4 -5 0 -7 7 -4 15 3 8 1 17 -5 21 -6 3 -11 -2 -11 -12 0 -13 -3 -14 -8 -6
-4 7 -25 14 -45 15 -20 2 -37 6 -37 10 0 4 -6 5 -14 2 -8 -3 -25 4 -38 15 -12
10 -34 29 -48 41 l-25 21 31 -15 c17 -8 49 -16 71 -17 34 -2 45 2 72 30 17 18
35 46 38 63 6 33 30 48 43 28 9 -15 30 -117 33 -164 1 -16 8 -31 16 -34 10 -3
12 2 9 22 -6 28 1 33 20 14 9 -9 13 -7 19 8 13 31 8 151 -6 168 -7 8 -11 21
-9 27 2 7 10 -2 17 -19 10 -24 20 -32 38 -32 14 0 21 4 18 10 -10 16 5 12 23
-7 16 -16 17 -11 24 68 3 46 6 119 7 162 1 75 0 77 -23 77 -34 0 -41 15 -9 18
41 3 40 12 -1 12 -33 0 -37 -2 -31 -20 6 -18 2 -20 -32 -20 -36 0 -98 29 -64
30 11 0 11 3 1 15 -7 8 -9 15 -5 15 4 0 2 6 -4 13 -6 8 -8 17 -4 20 3 4 -6 7
-20 7 -15 0 -27 4 -27 9 0 5 8 7 19 4 10 -3 22 0 25 6 5 7 -6 12 -31 13 -37 1
-37 1 -5 5 29 4 47 23 22 23 -6 0 -5 6 2 14 9 9 20 11 34 5 12 -4 25 -5 30 -1
4 4 4 1 0 -5 -4 -7 -2 -13 4 -13 7 0 10 -6 7 -14 -3 -8 -1 -16 5 -18 6 -2 16
-19 22 -38 11 -36 40 -49 74 -34 13 6 9 9 -18 14 l-35 7 33 2 c45 2 40 21 -5
22 l-38 2 40 7 c27 5 32 8 15 9 -14 1 -32 6 -40 12 -12 8 -8 10 15 8 45 -2 52
0 35 11 -10 6 -11 10 -2 10 6 0 12 11 12 24 0 14 5 28 10 31 6 4 10 -7 10 -25
0 -18 4 -29 10 -25 6 3 10 1 10 -4 0 -6 -4 -11 -10 -11 -5 0 -10 -4 -10 -9 0
-4 13 -7 30 -5 17 2 30 -1 30 -6 0 -6 -15 -10 -32 -11 -31 -1 -32 -1 -8 -9 23
-7 23 -8 3 -9 -16 -1 -21 -7 -20 -23 0 -13 6 -26 12 -30 7 -6 6 -11 -3 -16
-14 -9 3 -10 452 -12 159 0 291 2 294 5 6 6 18 5 -178 6 -85 0 -173 4 -195 9
-26 5 24 8 148 8 103 0 191 2 194 6 4 3 -18 6 -47 6 -65 0 -62 9 4 11 26 1 49
6 52 11 3 4 -1 8 -9 8 -20 0 -14 44 6 48 9 2 17 10 17 18 0 29 20 12 42 -36
13 -27 26 -50 30 -50 5 0 8 -6 8 -14 0 -8 6 -21 14 -29 31 -30 3 -34 -209 -28
-115 3 -307 6 -425 6 l-215 0 -3 -152 -3 -153 73 -1 c40 -1 77 -1 82 0 27 6
114 4 123 -2 7 -4 14 -4 17 1 2 4 23 7 45 6 47 -2 79 -27 62 -48 -9 -11 -5
-15 21 -20 21 -4 35 -2 41 6 7 10 10 11 14 0 2 -6 9 -10 14 -7 5 4 2 17 -7 31
-16 23 -16 24 9 24 14 0 29 5 33 11 4 8 9 7 14 -2 10 -15 123 -14 128 2 2 5 8
9 13 9 6 0 8 -4 5 -9 -4 -5 25 -11 63 -13 66 -3 82 4 36 15 -15 4 -14 5 7 6
15 0 30 -3 33 -9 3 -5 11 -10 16 -10 6 0 7 5 4 10 -3 6 -1 10 4 10 6 0 11 -4
11 -10 0 -5 14 -10 30 -10 17 0 30 5 30 13 0 8 4 7 10 -3 21 -31 30 16 30 158
0 137 -1 142 -21 142 -11 0 -18 4 -14 10 3 5 12 7 20 3 8 -3 15 -1 15 5 0 6
-6 13 -12 15 -10 4 -10 6 0 6 9 1 12 30 12 111 l0 110 -105 0 c-117 0 -112 -4
-96 75 7 34 9 36 10 11 1 -24 3 -27 16 -16 8 7 15 19 15 26 0 8 9 14 20 14 11
0 20 4 20 9 0 6 18 9 40 8 35 -1 40 -4 41 -27 l1 -25 7 25 c4 14 13 24 19 22
8 -1 12 24 12 83 l0 85 -62 0 c-35 0 -129 2 -210 4 -138 4 -146 3 -151 -15 -3
-12 -13 -19 -29 -18 l-23 1 25 8 c14 4 19 8 12 9 -7 1 -10 6 -7 11 4 6 -37 10
-117 9 -68 -1 -113 -4 -100 -6 12 -2 22 -11 22 -19 0 -11 -13 -14 -62 -11 -56
2 -63 5 -61 22 2 19 -6 20 -237 22 -237 2 -239 2 -242 -19 -3 -21 -7 -21 -133
-19 -105 2 -134 6 -149 19 -11 9 -16 12 -12 5 5 -9 -7 -12 -49 -10 -82 3 -73
25 13 30 l67 3 -77 2 c-65 2 -76 0 -72 -13 3 -8 0 -17 -8 -20 -24 -9 -113 10
-111 23 3 12 -9 12 -324 17 -86 1 -93 0 -93 -18 0 -19 -5 -20 -92 -13 -50 3
-111 6 -135 6 -36 0 -43 3 -43 20 0 18 -7 20 -86 20 -51 0 -83 -4 -79 -9 3 -6
-3 -15 -14 -21 -21 -11 -37 2 -26 20 4 6 -23 10 -72 11 -105 0 -191 5 -230 13
l-33 6 0 -202z m440 157 c0 -1 -12 -2 -26 -2 -17 0 -22 2 -13 7 10 7 39 3 39
-5z m-327 -42 c-7 -2 -19 -2 -25 0 -7 3 -2 5 12 5 14 0 19 -2 13 -5z m777 -3
c0 -5 -7 -10 -15 -10 -8 0 -15 5 -15 10 0 6 7 10 15 10 8 0 15 -4 15 -10z
m180 -20 c0 -5 -6 -10 -14 -10 -8 0 -18 5 -21 10 -3 6 3 10 14 10 12 0 21 -4
21 -10z m1035 0 c3 -5 -1 -10 -10 -10 -9 0 -13 5 -10 10 3 6 8 10 10 10 2 0 7
-4 10 -10z m-98 -16 c-3 -3 -12 -4 -19 -1 -8 3 -5 6 6 6 11 1 17 -2 13 -5z
m943 -14 c0 -5 -7 -10 -15 -10 -8 0 -15 5 -15 10 0 6 7 10 15 10 8 0 15 -4 15
-10z m-2754 -55 c10 -8 14 -15 8 -15 -7 0 -15 -11 -18 -24 -3 -13 -9 -31 -12
-39 -5 -13 17 -16 165 -17 133 0 171 2 171 12 0 10 2 10 9 -1 7 -11 51 -15
194 -19 l186 -4 4 38 c3 36 4 35 5 -10 l2 -49 -358 7 c-417 8 -476 12 -468 33
3 8 6 24 7 36 0 21 1 21 8 2 5 -11 7 -23 4 -27 -2 -5 1 -8 6 -8 6 0 11 8 11
19 0 10 5 32 11 50 12 34 34 40 65 16z m166 -11 c-18 -12 -26 -13 -37 -4 -8 7
-21 10 -30 7 -8 -4 -17 -2 -20 3 -4 6 17 10 52 10 55 0 57 -1 35 -16z m143 7
c3 -6 -11 -14 -31 -20 -29 -8 -41 -7 -60 6 -13 8 -24 17 -24 19 0 9 109 3 115
-5z m110 -2 c6 -1 -10 -5 -35 -8 -28 -4 -44 -11 -42 -18 1 -7 -2 -13 -8 -13
-11 0 -14 33 -4 43 5 5 56 3 89 -4z m929 -23 c-3 -13 -1 -27 5 -30 7 -5 11 3
11 20 l0 27 91 -6 c51 -4 98 -12 105 -18 7 -6 22 -8 32 -4 18 5 20 0 24 -40 2
-26 0 -51 -3 -57 -5 -7 -135 -8 -414 -3 l-407 8 6 21 c3 11 6 30 7 41 0 11 3
14 6 8 7 -18 23 -16 23 2 0 8 5 15 10 15 6 0 10 -15 10 -34 l0 -34 185 -1 185
-2 0 30 c0 16 4 41 10 55 9 24 15 26 65 26 53 0 55 -1 49 -24z m-264 2 c0 -4
-11 -8 -25 -8 -14 0 -25 4 -25 10 0 5 11 9 25 8 14 -1 25 -6 25 -10z m50 2 c0
-5 -7 -7 -15 -4 -8 4 -15 8 -15 10 0 2 7 4 15 4 8 0 15 -4 15 -10z m75 0 c-3
-5 -13 -10 -21 -10 -8 0 -14 5 -14 10 0 6 9 10 21 10 11 0 17 -4 14 -10z m877
-9 c30 -1 37 -5 41 -23 4 -20 4 -20 6 4 l1 27 143 -2 c80 -1 145 -6 149 -12 4
-5 20 -9 36 -7 22 2 31 -2 40 -23 7 -14 12 -41 12 -58 l0 -33 -157 3 c-471 9
-583 8 -583 -4 0 -16 -22 -17 -38 -1 -9 9 -12 9 -12 0 0 -7 -4 -12 -10 -12 -6
0 -9 27 -9 63 1 34 4 50 6 35 2 -14 11 -32 19 -38 12 -10 14 -7 14 19 0 34 18
60 37 54 6 -2 14 1 18 6 4 7 50 9 128 7 67 -2 139 -4 159 -5z m-2214 -48 c-2
-12 -11 -17 -23 -15 -25 5 -29 8 -20 21 11 19 47 13 43 -6z m42 -147 c0 -2
-11 -6 -25 -8 -14 -3 -25 -1 -25 3 0 5 11 9 25 9 14 0 25 -2 25 -4z m740 -10
c0 -3 -4 -8 -10 -11 -5 -3 -10 -1 -10 4 0 6 5 11 10 11 6 0 10 -2 10 -4z m150
-18 c0 -3 -6 -9 -12 -11 -8 -4 -7 -6 3 -6 13 -1 18 -15 24 -56 6 -51 8 -55 33
-56 l27 0 -25 -10 c-31 -13 -200 -1 -200 13 0 6 14 8 33 5 19 -3 40 -1 48 4 9
6 -2 9 -36 10 -27 1 -41 3 -30 6 68 14 68 18 0 23 l-70 6 68 2 c37 1 67 6 67
12 0 9 -251 17 -300 10 -8 -1 -12 1 -8 5 4 5 75 7 158 6 100 -2 150 1 151 8 2
11 6 29 8 34 3 5 61 1 61 -5z m-853 -4 c-3 -3 -12 -4 -19 -1 -8 3 -5 6 6 6 11
1 17 -2 13 -5z m140 0 c-3 -3 -12 -4 -19 -1 -8 3 -5 6 6 6 11 1 17 -2 13 -5z
m110 -1 c-20 -2 -52 -2 -70 0 -17 2 0 4 38 4 39 0 53 -2 32 -4z m70 1 c-3 -3
-12 -4 -19 -1 -8 3 -5 6 6 6 11 1 17 -2 13 -5z m103 -6 c0 -4 -13 -6 -30 -6
-16 1 -30 5 -30 9 0 5 13 7 30 6 16 -1 30 -5 30 -9z m40 2 c0 -5 -8 -10 -17
-10 -15 0 -16 2 -3 10 19 12 20 12 20 0z m30 0 c0 -5 -5 -10 -11 -10 -5 0 -7
5 -4 10 3 6 8 10 11 10 2 0 4 -4 4 -10z m1137 4 c-3 -3 -12 -4 -19 -1 -8 3 -5
6 6 6 11 1 17 -2 13 -5z m999 -9 c-10 -8 -23 -12 -28 -9 -14 9 2 24 25 24 21
-1 21 -1 3 -15z m-2078 -2 c-10 -2 -26 -2 -35 0 -10 3 -2 5 17 5 19 0 27 -2
18 -5z m222 -1 c0 -4 -37 -6 -82 -4 -126 4 -135 9 -20 11 56 0 102 -2 102 -7z
m1670 4 c0 -3 -4 -8 -10 -11 -5 -3 -10 -1 -10 4 0 6 5 11 10 11 6 0 10 -2 10
-4z m70 0 c0 -3 -4 -8 -10 -11 -5 -3 -10 -1 -10 4 0 6 5 11 10 11 6 0 10 -2
10 -4z m-2480 -16 c0 -13 -20 -13 -40 0 -12 8 -9 10 13 10 15 0 27 -4 27 -10z
m1033 3 c-7 -2 -21 -2 -30 0 -10 3 -4 5 12 5 17 0 24 -2 18 -5z m-930 -10 c-7
-2 -21 -2 -30 0 -10 3 -4 5 12 5 17 0 24 -2 18 -5z m150 0 c-23 -2 -64 -2 -90
0 -26 2 -7 3 42 3 50 0 71 -1 48 -3z m101 -3 c-7 -7 -19 -7 -35 -1 -23 9 -22
10 11 10 23 1 31 -2 24 -9z m36 0 c0 -5 -4 -10 -10 -10 -5 0 -10 5 -10 10 0 6
5 10 10 10 6 0 10 -4 10 -10z m40 0 c0 -5 -7 -10 -15 -10 -8 0 -15 5 -15 10 0
6 7 10 15 10 8 0 15 -4 15 -10z m1540 0 c0 -5 -7 -10 -16 -10 -8 0 -12 5 -9
10 3 6 10 10 16 10 5 0 9 -4 9 -10z m138 -5 c3 -3 -25 -5 -62 -5 -37 0 -65 3
-63 8 6 8 116 6 125 -3z m350 -2 c-38 -2 -98 -2 -135 0 -38 2 -7 3 67 3 74 0
105 -1 68 -3z m-2422 -12 c-5 -8 -116 -4 -125 5 -2 2 26 4 63 4 37 0 65 -4 62
-9z m981 3 c-3 -3 -12 -4 -19 -1 -8 3 -5 6 6 6 11 1 17 -2 13 -5z m-760 -11
c-20 -2 -52 -2 -70 0 -17 2 0 4 38 4 39 0 53 -2 32 -4z m138 -2 c-6 -5 -30 -5
-55 -1 l-45 7 55 2 c32 0 50 -3 45 -8z m42 3 c-3 -3 -12 -4 -19 -1 -8 3 -5 6
6 6 11 1 17 -2 13 -5z m103 2 c0 -3 -4 -8 -10 -11 -5 -3 -10 -1 -10 4 0 6 5
11 10 11 6 0 10 -2 10 -4z m70 -6 c0 -5 -5 -10 -11 -10 -5 0 -7 5 -4 10 3 6 8
10 11 10 2 0 4 -4 4 -10z m1337 4 c-3 -3 -12 -4 -19 -1 -8 3 -5 6 6 6 11 1 17
-2 13 -5z m173 -5 c0 -5 -9 -9 -19 -9 -11 0 -22 4 -25 9 -3 5 6 9 19 9 14 0
25 -4 25 -9z m30 1 c0 -5 -4 -10 -10 -10 -5 0 -10 5 -10 10 0 6 5 10 10 10 6
0 10 -4 10 -10z m368 -7 c-32 -2 -86 -2 -120 0 -35 2 -9 3 57 3 66 0 94 -1 63
-3z m-2591 -9 c-3 -3 -12 -4 -19 -1 -8 3 -5 6 6 6 11 1 17 -2 13 -5z m293 -7
c0 -10 -258 -2 -269 8 -3 4 56 5 132 4 75 -2 137 -7 137 -12z m158 -4 c-16 -2
-40 -2 -55 0 -16 2 -3 4 27 4 30 0 43 -2 28 -4z m1817 -3 c-6 -10 -70 -8 -81
3 -4 4 14 7 40 7 27 0 45 -4 41 -10z m105 0 c0 -13 -50 -13 -70 0 -11 7 -4 10
28 10 23 0 42 -4 42 -10z m-1417 -7 c-7 -2 -19 -2 -25 0 -7 3 -2 5 12 5 14 0
19 -2 13 -5z m-480 -20 c-23 -2 -64 -2 -90 0 -26 2 -7 3 42 3 50 0 71 -1 48
-3z m107 -1 c0 -5 -13 -7 -30 -4 -16 2 -30 6 -30 8 0 2 14 4 30 4 17 0 30 -4
30 -8z m40 4 c0 -11 -19 -15 -25 -6 -3 5 1 10 9 10 9 0 16 -2 16 -4z m40 -6
c0 -5 -7 -10 -15 -10 -8 0 -15 5 -15 10 0 6 7 10 15 10 8 0 15 -4 15 -10z m66
-1 c3 -5 -6 -9 -20 -9 -14 0 -27 4 -30 9 -3 5 6 9 19 9 14 0 28 -4 31 -9z
m1311 5 c-3 -3 -12 -4 -19 -1 -8 3 -5 6 6 6 11 1 17 -2 13 -5z m239 -2 c-6
-10 -73 -8 -83 2 -3 3 15 6 41 6 26 0 45 -4 42 -8z m-1240 -11 c-3 -4 -17 -7
-32 -5 -41 4 -41 14 0 14 20 0 35 -4 32 -9z m1787 2 c-7 -2 -19 -2 -25 0 -7 3
-2 5 12 5 14 0 19 -2 13 -5z m-1308 -27 c65 -5 71 -8 103 -43 29 -33 33 -43
28 -75 -4 -26 -1 -41 10 -52 14 -15 10 -16 -43 -17 -32 -1 -76 -3 -98 -5 -22
-2 -119 -5 -215 -8 -133 -3 -168 -1 -147 7 15 6 27 18 27 26 -1 25 -27 54 -41
45 -8 -4 -10 -3 -5 4 4 7 1 12 -6 12 -9 0 -10 3 -2 8 6 4 15 17 19 30 4 15 12
21 21 18 7 -3 26 6 40 19 14 13 29 24 33 23 3 -1 13 2 21 5 32 14 100 14 255
3z m1325 5 c0 -5 -7 -11 -15 -15 -15 -5 -20 5 -8 17 9 10 23 9 23 -2z m-2840
-205 c0 -3 -4 -8 -10 -11 -5 -3 -10 -1 -10 4 0 6 5 11 10 11 6 0 10 -2 10 -4z
m927 -12 c-3 -3 -12 -4 -19 -1 -8 3 -5 6 6 6 11 1 17 -2 13 -5z m226 -49 c-4
-11 58 -32 80 -27 4 1 10 -5 13 -13 7 -18 34 -20 34 -2 0 7 9 13 20 13 24 0
25 -17 5 -56 -20 -39 -43 -50 -103 -50 -34 0 -54 5 -65 18 -21 23 -33 98 -18
115 13 17 41 18 34 2z m320 -9 c10 1 21 -4 24 -12 7 -20 33 -17 34 4 0 9 3 12
5 6 3 -7 20 -8 49 -4 25 4 45 4 45 1 0 -3 5 1 10 9 7 11 10 7 10 -17 0 -57
-15 -81 -62 -93 -65 -18 -111 -1 -136 51 -11 23 -18 48 -15 56 3 8 9 10 12 5
3 -5 14 -8 24 -6z m-75 -50 c2 -19 6 -25 11 -17 6 9 13 4 26 -15 16 -25 16
-28 1 -36 -9 -5 -16 -14 -16 -19 0 -6 5 -7 10 -4 11 7 40 -12 40 -26 0 -4 -13
-4 -29 1 -16 4 -45 6 -65 3 -20 -2 -37 -1 -38 4 -6 33 -3 63 6 63 7 0 7 3 -1
8 -8 5 -8 15 3 40 17 42 47 41 52 -2z m1027 24 c3 -5 2 -10 -4 -10 -5 0 -13 5
-16 10 -3 6 -2 10 4 10 5 0 13 -4 16 -10z m122 -6 c-3 -3 -12 -4 -19 -1 -8 3
-5 6 6 6 11 1 17 -2 13 -5z m-760 -56 c-3 -8 -6 -5 -6 6 -1 11 2 17 5 13 3 -3
4 -12 1 -19z m-510 -74 c-32 -31 -53 -44 -64 -40 -9 4 -20 2 -24 -5 -4 -8 -12
-8 -24 -2 -14 8 -9 13 32 30 26 12 58 24 70 27 11 4 27 13 33 21 7 8 15 15 19
15 3 0 -16 -21 -42 -46z m-142 18 c-3 -3 -11 0 -18 7 -9 10 -8 11 6 5 10 -3
15 -9 12 -12z m195 -6 c0 -3 -4 -8 -10 -11 -5 -3 -10 -1 -10 4 0 6 5 11 10 11
6 0 10 -2 10 -4z m185 -62 c13 -8 30 -26 39 -38 l14 -23 -46 16 c-53 18 -65
30 -50 48 13 16 14 16 43 -3z m-231 -29 c-31 -24 -39 -17 -13 11 13 14 25 20
27 14 2 -6 -4 -18 -14 -25z m186 -25 c13 -9 13 -10 0 -10 -8 0 -22 5 -30 10
-13 9 -13 10 0 10 8 0 22 -5 30 -10z m-400 -10 c0 -5 -4 -10 -9 -10 -6 0 -13
5 -16 10 -3 6 1 10 9 10 9 0 16 -4 16 -10z m313 -77 c-7 -2 -19 -2 -25 0 -7 3
-2 5 12 5 14 0 19 -2 13 -5z m47 3 c0 -11 -19 -15 -25 -6 -3 5 1 10 9 10 9 0
16 -2 16 -4z m120 -77 c0 -11 -40 -32 -40 -22 0 4 -7 0 -14 -10 -14 -18 -86
-32 -86 -17 0 4 -17 4 -38 0 -40 -7 -82 2 -82 19 0 12 29 18 125 26 44 4 86
11 94 15 17 9 41 2 41 -11z m-1461 -126 c0 -25 -1 -25 -8 -8 -5 11 -7 23 -4
28 8 14 13 7 12 -20z m640 8 c-14 -5 -35 -13 -46 -19 -28 -15 -158 -28 -150
-15 4 6 38 13 76 16 39 3 79 10 88 16 10 6 27 10 38 10 16 -1 15 -2 -6 -8z
m61 -11 c-33 -26 -105 -54 -122 -47 -9 4 -7 8 7 12 11 3 45 17 75 29 69 30 70
30 40 6z m90 -11 c0 -17 -4 -28 -10 -24 -5 3 -10 17 -10 31 0 13 5 24 10 24 6
0 10 -14 10 -31z m-550 11 c22 -14 6 -22 -24 -11 -14 6 -26 7 -26 2 0 -5 14
-12 30 -16 48 -10 36 -28 -12 -20 -52 9 -48 6 -41 33 6 24 45 30 73 12z m462
-30 c-18 -17 -38 -30 -45 -30 -6 0 2 9 19 19 18 11 35 24 38 30 4 6 10 11 14
11 4 0 -8 -14 -26 -30z m-347 10 c16 -7 11 -9 -20 -9 -22 0 -49 4 -60 9 -16 7
-11 9 20 9 22 0 49 -4 60 -9z m58 -7 c-7 -2 -19 -2 -25 0 -7 3 -2 5 12 5 14 0
19 -2 13 -5z m138 -16 c-1 -4 -3 -7 -6 -7 -3 0 -15 0 -27 1 -22 0 -22 1 -3 9
22 9 37 8 36 -3z m-68 -4 c-7 -2 -19 -2 -25 0 -7 3 -2 5 12 5 14 0 19 -2 13
-5z m-449 -268 c3 -8 0 -15 -7 -15 -8 0 -6 -4 3 -10 8 -5 10 -10 5 -10 -6 0
-17 6 -24 13 -11 10 -13 10 -7 0 4 -7 4 -13 -1 -13 -69 -5 -167 -3 -165 3 1 4
2 15 3 25 0 16 1 16 11 1 9 -13 16 -15 34 -7 16 7 32 7 54 -1 30 -10 31 -9 19
6 -12 15 -12 16 3 10 10 -3 20 -2 23 3 9 15 42 12 49 -5z m146 -3 c0 -18 -28
-45 -38 -38 -18 11 -14 34 6 39 28 8 32 7 32 -1z m52 -12 c-8 -21 -25 -31 -33
-18 -11 17 -1 34 20 34 13 0 17 -5 13 -16z m-112 -5 c0 -10 -10 -15 -27 -15
l-28 1 25 14 c31 18 30 18 30 0z m0 -69 c-14 -8 -29 -12 -34 -8 -10 6 20 20
44 21 8 0 4 -6 -10 -13z m63 6 c-7 -4 -9 -13 -4 -21 10 -16 31 -6 31 15 0 16
45 20 55 3 9 -14 2 -20 -27 -23 -13 -1 -29 -5 -35 -9 -6 -4 -18 -4 -27 -1 -25
10 -19 44 8 44 7 0 7 -3 -1 -8z m-340 -9 c-7 -2 -13 -9 -13 -15 0 -6 7 -8 15
-4 8 3 15 1 15 -4 0 -13 -27 -13 -35 0 -8 13 3 30 18 29 9 0 9 -2 0 -6z m87 3
c0 -2 -7 -6 -15 -10 -8 -3 -15 -1 -15 4 0 6 7 10 15 10 8 0 15 -2 15 -4z m42
-9 c-7 -8 -7 -18 -2 -27 8 -13 10 -13 10 1 0 11 9 17 25 17 29 0 34 -14 8 -21
-14 -4 -12 -5 5 -6 15 -1 22 5 22 18 0 12 -8 21 -22 24 -19 4 -18 4 5 6 25 1
28 -2 25 -26 -3 -26 -6 -28 -58 -31 -39 -2 -51 0 -40 8 13 8 13 10 -2 10 -10
0 -18 -4 -18 -8 0 -13 -29 -10 -34 4 -3 7 8 14 30 18 19 4 34 11 34 16 0 6 5
10 11 10 8 0 8 -4 1 -13z m266 -44 c-10 -2 -26 -2 -35 0 -10 3 -2 5 17 5 19 0
27 -2 18 -5z m62 -13 c12 -8 9 -10 -13 -10 -16 0 -26 4 -22 10 8 12 16 12 35
0z m21 -34 c-6 -7 -16 -36 -22 -66 -9 -41 -13 -50 -21 -37 -5 10 -6 22 -2 29
5 8 1 9 -12 5 -15 -6 -14 -3 5 13 29 25 24 32 -24 32 -42 0 -42 1 3 16 19 6
30 7 27 2 -4 -6 1 -10 10 -10 8 0 21 12 27 26 7 15 14 21 16 15 2 -7 -1 -17
-7 -25z m-211 -21 c0 -2 -16 -5 -35 -7 -21 -2 -35 0 -35 7 0 7 14 9 35 7 19
-2 35 -5 35 -7z m-104 -10 c-10 -7 -15 -18 -11 -24 4 -7 0 -8 -10 -5 -11 5
-13 10 -5 19 5 6 7 15 3 18 -3 4 5 7 18 7 23 -1 23 -1 5 -15z m-53 -15 c-3
-12 -8 -19 -11 -16 -5 6 5 36 12 36 2 0 2 -9 -1 -20z m177 15 c0 -2 -9 -9 -20
-15 -12 -6 -20 -7 -20 -1 0 5 8 12 18 14 9 3 18 5 20 6 1 0 2 -1 2 -4z m-211
-19 c9 -11 6 -12 -14 -8 -14 2 -22 8 -19 13 8 13 20 11 33 -5z m292 -8 c1 -16
3 -18 6 -6 2 9 11 19 19 22 18 7 18 2 -2 -36 -15 -29 -17 -30 -27 -12 -5 10
-17 27 -25 37 -14 15 -13 17 6 17 16 0 22 -6 23 -22z m-171 2 c0 -5 -5 -10
-11 -10 -5 0 -7 5 -4 10 3 6 8 10 11 10 2 0 4 -4 4 -10z m25 0 c3 -5 1 -10 -4
-10 -6 0 -11 5 -11 10 0 6 2 10 4 10 3 0 8 -4 11 -10z m71 -15 c24 -18 38 -19
28 -2 -5 7 0 6 11 -3 17 -14 17 -15 -8 -18 -28 -4 -67 13 -67 28 0 14 13 12
36 -5z m-36 -14 c0 -11 -68 -7 -78 4 -4 5 0 6 8 3 8 -3 24 -2 35 2 21 8 35 4
35 -9z m-132 -8 c-2 -10 2 -18 9 -18 6 0 15 -3 19 -8 4 -4 -4 -6 -18 -5 -19 2
-25 7 -23 23 3 24 3 25 10 25 3 0 5 -8 3 -17z m-51 -8 c0 -8 -4 -15 -9 -15
-10 0 -11 14 -1 23 9 10 10 9 10 -8z m348 5 c3 -5 -1 -10 -9 -10 -9 0 -16 5
-16 10 0 6 4 10 9 10 6 0 13 -4 16 -10z m12 -52 c-3 -8 -6 -5 -6 6 -1 11 2 17
5 13 3 -3 4 -12 1 -19z m-247 2 c-8 -5 -19 -10 -25 -10 -5 0 -3 5 5 10 8 5 20
10 25 10 6 0 3 -5 -5 -10z m-8 -42 c-7 -7 -12 -8 -12 -2 0 14 12 26 19 19 2
-3 -1 -11 -7 -17z m248 2 c0 -5 -2 -10 -4 -10 -3 0 -8 5 -11 10 -3 6 -1 10 4
10 6 0 11 -4 11 -10z m-233 -36 c-3 -3 -12 -4 -19 -1 -8 3 -5 6 6 6 11 1 17
-2 13 -5z m223 -8 c0 -8 -12 -23 -26 -33 -16 -12 -27 -29 -27 -44 0 -22 -3
-24 -46 -24 -25 0 -51 4 -58 8 -6 4 -14 1 -17 -5 -5 -10 -7 -10 -12 0 -5 10
-9 10 -20 1 -9 -7 -14 -8 -14 -1 0 15 28 21 85 18 59 -3 75 1 75 21 0 9 -6 13
-15 9 -8 -3 -15 -1 -15 4 0 5 16 12 35 16 58 11 49 22 -16 18 -33 -2 -58 0
-55 5 3 4 26 9 52 10 26 0 50 3 52 6 10 10 22 5 22 -9z m-157 -27 c-6 -23 -44
-23 -51 1 -5 13 -3 13 13 0 17 -13 18 -13 13 0 -4 11 0 16 12 17 13 1 16 -4
13 -18z m-72 -12 c-10 -9 -11 -8 -5 6 3 10 9 15 12 12 3 -3 0 -11 -7 -18z
m-27 -2 c-4 -8 -11 -12 -16 -9 -6 4 -5 10 3 15 19 12 19 11 13 -6z m133 9 c-3
-3 -12 -4 -19 -1 -8 3 -5 6 6 6 11 1 17 -2 13 -5z m-297 -28 c0 -7 -6 -13 -14
-13 -8 0 -11 8 -8 19 5 19 22 15 22 -6z m81 -19 c-6 -8 -7 -17 -3 -21 4 -4 -5
-5 -19 -1 -20 5 -27 2 -36 -17 -10 -23 -10 -23 -10 5 0 26 10 32 45 28 6 -1
12 3 12 9 0 5 5 10 11 10 8 0 9 -4 0 -13z m22 -12 c-3 -9 -8 -14 -10 -11 -3 3
-2 9 2 15 9 16 15 13 8 -4z m-16 -43 c-10 -13 -8 -14 10 -8 13 4 24 2 29 -5 5
-9 2 -10 -9 -6 -9 3 -17 1 -19 -5 -2 -6 -11 -4 -21 6 -19 19 -16 33 7 33 13 0
13 -3 3 -15z m138 -2 c19 -8 19 -9 -2 -9 -12 -1 -25 4 -28 9 -7 12 2 12 30 0z
m-189 -25 c-11 -8 -27 -15 -35 -14 -9 0 -2 7 14 14 39 18 45 18 21 0z m134 -9
c0 -3 -4 -8 -10 -11 -5 -3 -10 -1 -10 4 0 6 5 11 10 11 6 0 10 -2 10 -4z m87
-2 c-3 -3 -12 -4 -19 -1 -8 3 -5 6 6 6 11 1 17 -2 13 -5z m-150 -60 c10 -10
26 -14 42 -11 33 6 70 -6 52 -17 -6 -4 -18 -3 -26 4 -10 8 -15 8 -20 0 -4 -6
-13 -9 -21 -6 -8 3 -14 0 -15 -7 0 -7 -4 -2 -9 11 -5 12 -16 22 -25 22 -8 0
-15 5 -15 10 0 15 19 12 37 -6z m-54 -11 c-7 -2 -21 -2 -30 0 -10 3 -4 5 12 5
17 0 24 -2 18 -5z m169 -45 c-8 -8 -9 -4 -5 13 4 13 8 18 11 10 2 -7 -1 -18
-6 -23z m-209 -5 c-4 -11 -8 -13 -11 -5 -2 7 -8 10 -13 6 -5 -3 -9 0 -9 5 0 6
9 11 20 11 14 0 18 -5 13 -17z m187 13 c0 -3 -4 -8 -10 -11 -5 -3 -10 -1 -10
4 0 6 5 11 10 11 6 0 10 -2 10 -4z m-110 -10 c0 -3 -4 -8 -10 -11 -5 -3 -10
-1 -10 4 0 6 5 11 10 11 6 0 10 -2 10 -4z m185 -24 c-3 -3 -11 0 -18 7 -9 10
-8 11 6 5 10 -3 15 -9 12 -12z m-158 -33 c-14 -23 -27 -25 -27 -3 0 9 5 12 12
8 7 -5 9 -2 5 9 -4 11 -2 14 8 11 11 -5 12 -10 2 -25z m38 22 c-3 -6 3 -14 12
-20 10 -6 13 -11 7 -11 -15 0 -36 25 -27 33 10 10 15 8 8 -2z m80 -1 c8 7 12
5 12 -5 0 -26 -39 -27 -43 -1 -2 14 0 16 8 8 8 -8 16 -8 23 -2z m-156 -28 c0
-12 -2 -13 -6 -3 -4 10 -7 10 -13 1 -5 -9 -9 -8 -13 2 -3 9 2 14 14 15 12 1
19 -4 18 -15z m135 -30 c2 -4 1 -14 -3 -21 -6 -9 -10 -10 -15 -2 -4 6 -13 8
-19 4 -7 -4 -6 0 2 10 15 18 27 22 35 9z m-94 -16 c0 -3 -4 -8 -10 -11 -5 -3
-10 -1 -10 4 0 6 5 11 10 11 6 0 10 -2 10 -4z m-98 -24 c-7 -2 -9 -9 -6 -14 4
-7 2 -8 -4 -4 -6 4 -9 13 -6 21 4 8 11 12 17 8 8 -5 7 -8 -1 -11z m68 3 c0 -8
-9 -10 -25 -7 -32 6 -32 17 0 18 14 1 25 -4 25 -11z m37 -17 c-3 -8 -6 -5 -6
6 -1 11 2 17 5 13 3 -3 4 -12 1 -19z m67 3 c3 -5 -1 -11 -9 -14 -9 -4 -12 -1
-8 9 6 16 10 17 17 5z m-160 -43 c-3 -5 -9 -6 -14 -3 -4 3 -10 -1 -13 -7 -2
-7 -8 -9 -13 -5 -5 4 -3 12 4 16 17 10 42 10 36 -1z m42 -35 c-10 -10 -46 -14
-46 -5 0 4 12 9 27 10 14 1 23 -1 19 -5z m34 -3 c0 -5 -2 -10 -4 -10 -3 0 -8
5 -11 10 -3 6 -1 10 4 10 6 0 11 -4 11 -10z m-10 -40 c0 -5 -5 -10 -11 -10 -5
0 -7 5 -4 10 3 6 8 10 11 10 2 0 4 -4 4 -10z"/>
<path d="M1440 2506 c0 -9 40 -13 46 -5 3 5 -6 9 -20 9 -14 0 -26 -2 -26 -4z"/>
<path d="M1728 2493 c6 -2 18 -2 25 0 6 3 1 5 -13 5 -14 0 -19 -2 -12 -5z"/>
<path d="M1953 2494 c10 -10 69 -16 63 -6 -2 4 -19 9 -37 10 -18 1 -30 -1 -26
-4z"/>
<path d="M1595 1840 c3 -5 8 -10 11 -10 2 0 4 5 4 10 0 6 -5 10 -11 10 -5 0
-7 -4 -4 -10z"/>
<path d="M1525 1830 c3 -5 11 -10 16 -10 6 0 7 5 4 10 -3 6 -11 10 -16 10 -6
0 -7 -4 -4 -10z"/>
<path d="M587 2803 c18 -2 50 -2 70 0 21 2 7 4 -32 4 -38 0 -55 -2 -38 -4z"/>
<path d="M2563 2803 c9 -2 23 -2 30 0 6 3 -1 5 -18 5 -16 0 -22 -2 -12 -5z"/>
<path d="M848 2793 c7 -3 16 -2 19 1 4 3 -2 6 -13 5 -11 0 -14 -3 -6 -6z"/>
<path d="M1048 2793 c6 -2 18 -2 25 0 6 3 1 5 -13 5 -14 0 -19 -2 -12 -5z"/>
<path d="M1257 2789 c7 -7 15 -10 18 -7 3 3 -2 9 -12 12 -14 6 -15 5 -6 -5z"/>
<path d="M1948 2773 c6 -2 18 -2 25 0 6 3 1 5 -13 5 -14 0 -19 -2 -12 -5z"/>
<path d="M2013 2773 c9 -2 23 -2 30 0 6 3 -1 5 -18 5 -16 0 -22 -2 -12 -5z"/>
<path d="M2468 2773 c7 -3 16 -2 19 1 4 3 -2 6 -13 5 -11 0 -14 -3 -6 -6z"/>
<path d="M1290 2761 c0 -5 9 -7 20 -4 11 3 20 7 20 9 0 2 -9 4 -20 4 -11 0
-20 -4 -20 -9z"/>
<path d="M2643 2763 c9 -2 23 -2 30 0 6 3 -1 5 -18 5 -16 0 -22 -2 -12 -5z"/>
<path d="M2743 2763 c9 -2 25 -2 35 0 9 3 1 5 -18 5 -19 0 -27 -2 -17 -5z"/>
<path d="M1565 2750 c-3 -5 -1 -10 4 -10 6 0 11 5 11 10 0 6 -2 10 -4 10 -3 0
-8 -4 -11 -10z"/>
<path d="M2288 2743 c7 -3 16 -2 19 1 4 3 -2 6 -13 5 -11 0 -14 -3 -6 -6z"/>
<path d="M1850 2356 c0 -2 9 -6 20 -9 11 -3 20 -1 20 4 0 5 -9 9 -20 9 -11 0
-20 -2 -20 -4z"/>
<path d="M51 1874 c0 -11 3 -14 6 -6 3 7 2 16 -1 19 -3 4 -6 -2 -5 -13z"/>
<path d="M150 1869 c0 -5 5 -7 10 -4 6 3 10 8 10 11 0 2 -4 4 -10 4 -5 0 -10
-5 -10 -11z"/>
<path d="M225 1870 c-3 -5 -1 -10 4 -10 6 0 11 5 11 10 0 6 -2 10 -4 10 -3 0
-8 -4 -11 -10z"/>
<path d="M265 1870 c-3 -5 -1 -10 4 -10 6 0 11 5 11 10 0 6 -2 10 -4 10 -3 0
-8 -4 -11 -10z"/>
<path d="M300 1868 c0 -5 20 -8 45 -8 25 0 45 3 45 8 0 4 -20 7 -45 7 -25 0
-45 -3 -45 -7z"/>
<path d="M415 1870 c-3 -5 1 -10 10 -10 9 0 13 5 10 10 -3 6 -8 10 -10 10 -2
0 -7 -4 -10 -10z"/>
<path d="M650 1858 c0 -4 14 -8 30 -8 17 0 30 4 30 8 0 5 -13 9 -30 9 -16 0
-30 -4 -30 -9z"/>
<path d="M725 1860 c-3 -5 1 -10 10 -10 9 0 13 5 10 10 -3 6 -8 10 -10 10 -2
0 -7 -4 -10 -10z"/>
<path d="M765 1860 c-3 -5 -1 -10 4 -10 6 0 11 5 11 10 0 6 -2 10 -4 10 -3 0
-8 -4 -11 -10z"/>
<path d="M800 1860 c0 -5 5 -10 10 -10 6 0 10 5 10 10 0 6 -4 10 -10 10 -5 0
-10 -4 -10 -10z"/>
<path d="M835 1860 c-3 -5 1 -10 10 -10 9 0 13 5 10 10 -3 6 -8 10 -10 10 -2
0 -7 -4 -10 -10z"/>
<path d="M875 1860 c-3 -5 -1 -10 4 -10 6 0 11 5 11 10 0 6 -2 10 -4 10 -3 0
-8 -4 -11 -10z"/>
<path d="M905 1860 c-3 -5 -1 -10 4 -10 6 0 11 5 11 10 0 6 -2 10 -4 10 -3 0
-8 -4 -11 -10z"/>
<path d="M2070 1840 c0 -5 5 -10 10 -10 6 0 10 5 10 10 0 6 -4 10 -10 10 -5 0
-10 -4 -10 -10z"/>
<path d="M2140 1840 c0 -5 5 -10 10 -10 6 0 10 5 10 10 0 6 -4 10 -10 10 -5 0
-10 -4 -10 -10z"/>
<path d="M2175 1840 c-3 -5 -1 -10 4 -10 6 0 11 5 11 10 0 6 -2 10 -4 10 -3 0
-8 -4 -11 -10z"/>
<path d="M2215 1840 c-3 -5 -1 -10 4 -10 6 0 11 5 11 10 0 6 -2 10 -4 10 -3 0
-8 -4 -11 -10z"/>
<path d="M2250 1840 c0 -5 5 -10 10 -10 6 0 10 5 10 10 0 6 -4 10 -10 10 -5 0
-10 -4 -10 -10z"/>
<path d="M2285 1840 c-3 -5 -1 -10 4 -10 6 0 11 5 11 10 0 6 -2 10 -4 10 -3 0
-8 -4 -11 -10z"/>
<path d="M2320 1840 c0 -5 5 -10 10 -10 6 0 10 5 10 10 0 6 -4 10 -10 10 -5 0
-10 -4 -10 -10z"/>
<path d="M2395 1840 c-3 -5 -1 -10 4 -10 6 0 11 5 11 10 0 6 -2 10 -4 10 -3 0
-8 -4 -11 -10z"/>
<path d="M2821 1834 c0 -11 3 -14 6 -6 3 7 2 16 -1 19 -3 4 -6 -2 -5 -13z"/>
<path d="M2855 1840 c-3 -5 -1 -10 4 -10 6 0 11 5 11 10 0 6 -2 10 -4 10 -3 0
-8 -4 -11 -10z"/>
<path d="M488 1833 c7 -3 16 -2 19 1 4 3 -2 6 -13 5 -11 0 -14 -3 -6 -6z"/>
<path d="M2920 1829 c0 -5 5 -7 10 -4 6 3 10 8 10 11 0 2 -4 4 -10 4 -5 0 -10
-5 -10 -11z"/>
<path d="M485 1810 c-3 -6 -4 -96 -1 -200 l5 -190 -27 5 c-21 4 -20 2 8 -9 55
-23 320 -19 320 4 0 4 -19 4 -42 1 -24 -4 -74 -6 -112 -6 l-70 0 -7 35 c-4 19
-10 80 -13 135 -3 55 -8 111 -11 125 -2 14 -7 44 -11 68 -6 40 -25 55 -39 32z"/>
<path d="M728 1803 c12 -2 30 -2 40 0 9 3 -1 5 -23 4 -22 0 -30 -2 -17 -4z"/>
<path d="M2488 1803 c7 -3 16 -2 19 1 4 3 -2 6 -13 5 -11 0 -14 -3 -6 -6z"/>
<path d="M2490 1777 c0 -7 4 -17 9 -22 5 -6 23 -37 41 -70 18 -33 42 -70 53
-82 11 -13 17 -23 13 -23 -10 0 11 -37 66 -112 33 -46 56 -68 70 -68 19 0 20
1 3 26 -9 14 -25 34 -37 46 -11 11 -29 40 -39 64 -11 24 -23 44 -27 44 -4 0
-34 47 -66 105 -52 93 -86 130 -86 92z"/>
<path d="M1813 1727 c0 -13 8 -29 18 -35 17 -11 18 -10 7 16 -17 40 -25 46
-25 19z"/>
<path d="M918 1733 c7 -3 16 -2 19 1 4 3 -2 6 -13 5 -11 0 -14 -3 -6 -6z"/>
<path d="M1018 1733 c7 -3 16 -2 19 1 4 3 -2 6 -13 5 -11 0 -14 -3 -6 -6z"/>
<path d="M128 1713 c12 -2 30 -2 40 0 9 3 -1 5 -23 4 -22 0 -30 -2 -17 -4z"/>
<path d="M920 1710 c0 -5 5 -10 11 -10 5 0 7 5 4 10 -3 6 -8 10 -11 10 -2 0
-4 -4 -4 -10z"/>
<path d="M978 1713 c7 -3 16 -2 19 1 4 3 -2 6 -13 5 -11 0 -14 -3 -6 -6z"/>
<path d="M708 1703 c7 -3 16 -2 19 1 4 3 -2 6 -13 5 -11 0 -14 -3 -6 -6z"/>
<path d="M2933 1693 c9 -2 23 -2 30 0 6 3 -1 5 -18 5 -16 0 -22 -2 -12 -5z"/>
<path d="M2660 1580 c6 -11 16 -20 23 -19 9 0 9 2 -1 6 -6 2 -10 8 -7 13 3 4
-2 11 -10 14 -13 4 -14 2 -5 -14z"/>
<path d="M1028 1553 c6 -2 18 -2 25 0 6 3 1 5 -13 5 -14 0 -19 -2 -12 -5z"/>
<path d="M2687 1539 c7 -7 15 -10 18 -7 3 3 -2 9 -12 12 -14 6 -15 5 -6 -5z"/>
<path d="M2716 1492 c6 -4 14 -16 18 -27 8 -24 45 -70 51 -64 7 8 -57 99 -69
99 -8 0 -8 -2 0 -8z"/>
<path d="M1809 1450 c26 -75 43 -277 26 -329 -3 -10 -2 -22 2 -24 19 -12 -9
-255 -54 -477 -25 -124 -33 -153 -119 -447 -24 -84 -44 -157 -44 -163 0 -7
109 -10 323 -10 l324 0 -5 30 c-3 18 0 30 7 30 10 0 15 -20 12 -48 -2 -10 72
-12 359 -11 198 1 358 4 355 7 -8 8 -240 17 -261 10 -5 -2 -10 0 -11 5 -7 20
-1 27 21 23 21 -4 36 9 36 29 0 1 -16 -1 -35 -5 -19 -4 -33 -4 -30 0 3 4 -2
10 -10 14 -20 7 -19 29 5 76 22 43 36 53 25 19 -5 -15 -4 -19 4 -15 6 4 11 5
11 1 0 -3 -10 -10 -22 -15 l-23 -9 25 0 c27 -1 18 -16 -15 -24 -15 -4 -13 -5
8 -6 25 -1 40 -21 15 -21 -6 0 -8 -3 -5 -6 4 -4 13 -1 22 6 8 7 15 9 15 4 0
-5 9 2 20 16 11 14 18 18 14 9 -3 -10 0 -20 7 -25 8 -5 10 -3 4 6 -6 9 -2 10
15 5 15 -5 20 -4 16 4 -5 7 -1 9 8 5 20 -8 21 10 2 25 -10 8 -16 9 -21 1 -3
-6 -11 -8 -16 -5 -17 11 -9 20 18 22 14 0 30 8 35 17 5 8 15 13 22 10 8 -3 17
-1 21 5 4 8 13 8 28 -1 20 -10 21 -10 9 5 -8 9 -10 21 -6 28 5 9 -1 10 -22 5
l-29 -6 25 14 c23 13 26 12 46 -15 20 -28 22 -28 27 -9 3 13 -1 24 -14 30 -23
13 -25 32 -2 23 11 -4 14 -3 9 5 -4 7 -2 12 4 12 7 0 10 62 10 200 -1 191 -2
200 -21 200 -10 0 -19 5 -19 10 0 17 -18 11 -25 -9 -3 -11 -15 -18 -30 -18
-14 0 -22 4 -19 9 3 5 12 7 20 4 8 -3 14 -2 14 2 0 14 -63 33 -71 21 -4 -7 -8
-5 -12 5 -4 9 -11 16 -17 16 -6 0 -9 -4 -6 -8 3 -5 -9 -7 -27 -6 -18 1 -39 3
-47 3 -13 1 -13 2 0 11 8 5 11 13 6 17 -4 4 -14 -1 -22 -11 -7 -11 -16 -17
-19 -14 -3 3 1 11 10 18 8 7 15 17 15 22 0 6 -7 4 -16 -3 -9 -7 -30 -12 -48
-11 -17 1 -38 -2 -46 -8 -13 -9 -13 -11 0 -20 13 -8 12 -10 -2 -10 -15 0 -18
9 -18 44 0 24 -2 51 -5 58 -4 9 2 14 15 15 12 1 20 -4 20 -13 0 -8 -4 -12 -10
-9 -16 10 -12 -15 5 -31 8 -9 15 -11 15 -5 0 6 8 11 18 11 9 0 30 7 46 15 25
14 27 14 16 0 -8 -9 -8 -15 -2 -15 6 0 14 5 17 10 4 6 11 7 17 4 6 -4 31 -6
55 -5 36 1 43 -2 43 -17 0 -15 -8 -18 -42 -18 -24 1 -43 -4 -45 -11 -3 -9 4
-10 25 -4 16 5 36 5 45 -1 11 -6 17 -5 17 1 0 5 12 4 27 -4 30 -16 58 -3 49
22 -3 7 -1 13 4 13 6 0 10 -11 10 -25 0 -14 4 -25 9 -25 5 0 7 10 3 22 -3 14
-2 19 6 14 7 -4 12 -1 12 8 0 8 4 18 10 21 6 3 7 -1 4 -9 -3 -9 -1 -16 5 -16
8 0 11 46 11 145 l0 145 -36 0 c-19 0 -33 4 -30 8 3 5 19 7 36 4 27 -4 30 -2
30 23 l0 27 -86 -4 c-114 -6 -118 9 -4 18 49 3 87 10 85 14 -6 9 -483 5 -492
-4 -4 -4 1 -14 12 -24 10 -9 14 -11 10 -4 -6 11 7 12 61 8 38 -2 81 -5 97 -5
15 -1 27 -6 27 -11 0 -6 -30 -9 -75 -8 -41 1 -78 -1 -81 -5 -7 -6 18 -11 39
-8 4 0 7 -6 7 -14 0 -17 16 -20 25 -6 3 6 14 8 25 6 11 -2 53 -5 92 -6 40 -2
79 -7 86 -12 6 -5 26 -7 42 -3 22 4 30 2 30 -9 0 -11 -13 -15 -50 -15 -33 0
-50 4 -50 13 0 9 -2 9 -8 0 -5 -8 -29 -11 -70 -9 -34 2 -64 1 -67 -4 -2 -4
-31 -7 -64 -6 -42 1 -57 -2 -50 -10 5 -6 6 -14 2 -17 -3 -4 -1 -7 5 -7 6 0 9
-6 6 -13 -4 -10 4 -13 28 -12 20 1 38 -4 45 -14 12 -14 12 -14 7 1 -5 14 -1
16 22 12 16 -3 34 -10 41 -15 6 -6 20 -9 30 -7 10 1 23 -1 30 -5 6 -4 15 -3
18 3 5 8 11 8 20 0 9 -8 24 -7 55 4 37 13 41 13 35 -2 -3 -8 0 -19 7 -24 9 -6
6 -7 -9 -3 -12 3 -24 1 -28 -5 -3 -5 -11 -10 -18 -10 -6 0 -2 7 9 15 22 17 3
21 -27 5 -13 -8 -19 -7 -19 0 0 6 -5 8 -10 5 -6 -4 -8 -10 -6 -14 8 -13 -51
-6 -68 8 -14 12 -16 12 -10 -3 3 -9 1 -16 -5 -16 -6 0 -11 7 -11 15 0 24 -29
30 -45 9 -9 -12 -14 -14 -15 -6 0 7 -4 10 -10 7 -5 -3 -10 2 -11 12 0 16 -1
16 -9 -2 -7 -16 -9 -16 -9 -4 -1 19 -23 30 -38 21 -6 -4 -7 -15 -2 -27 4 -11
8 -14 8 -7 1 6 5 12 10 12 5 0 7 -9 4 -20 -3 -11 -9 -20 -13 -20 -11 0 -30 57
-30 90 0 15 -4 40 -9 56 -5 16 -14 48 -20 70 -11 40 -13 42 -82 64 -47 15 -66
26 -57 31 8 6 1 9 -22 9 -19 0 -60 9 -90 21 -30 12 -86 32 -125 45 l-70 23
180 2 c244 3 549 0 668 -7 l97 -6 0 37 c0 36 -1 37 -27 30 -15 -3 -30 -10 -33
-14 -8 -13 -111 -20 -107 -7 2 6 22 12 46 14 23 2 39 7 37 11 -3 4 -40 3 -84
-1 -44 -5 -102 -4 -133 1 l-54 9 85 2 c47 1 111 5 142 9 32 4 59 3 60 -1 4
-11 68 2 68 12 0 13 -102 27 -135 18 -38 -10 -168 -11 -162 0 3 4 -66 8 -154
8 l-159 2 -5 -37 c-11 -65 -13 -67 -14 -13 l-1 52 -82 1 c-46 0 -160 2 -254 3
l-171 2 -31 34 c-29 31 -31 32 -23 10z m807 -86 c14 -4 22 -14 22 -30 0 -25
-13 -29 -55 -18 -34 9 -29 48 7 53 3 0 15 -2 26 -5z m49 -44 c3 -5 1 -10 -4
-10 -6 0 -11 5 -11 10 0 6 2 10 4 10 3 0 8 -4 11 -10z m155 -16 c0 -2 -7 -4
-15 -4 -8 0 -15 4 -15 10 0 5 7 7 15 4 8 -4 15 -8 15 -10z m-836 -170 c35 -34
5 -105 -35 -84 -28 15 -35 57 -14 80 22 24 29 25 49 4z m773 -39 c0 -8 -9 -15
-19 -15 -16 0 -17 2 -6 15 17 19 25 19 25 0z m53 0 c0 -8 -4 -15 -10 -15 -5 0
-7 7 -4 15 4 8 8 15 10 15 2 0 4 -7 4 -15z m130 -65 c12 -8 11 -10 -7 -10 -13
0 -23 5 -23 10 0 13 11 13 30 0z m-105 -80 c-3 -5 1 -11 7 -14 7 -3 4 -5 -7
-3 -11 1 -21 10 -23 20 -2 12 1 15 12 11 9 -3 14 -10 11 -14z m83 -10 c4 -12
3 -13 -10 -2 -9 7 -24 9 -33 5 -13 -4 -16 -3 -11 6 10 16 48 10 54 -9z m57 10
c18 -8 17 -9 -7 -9 -15 -1 -30 4 -33 9 -7 12 12 12 40 0z m-245 -10 c0 -5 -7
-10 -15 -10 -8 0 -15 5 -15 10 0 6 7 10 15 10 8 0 15 -4 15 -10z m253 -47 c-7
-2 -19 -2 -25 0 -7 3 -2 5 12 5 14 0 19 -2 13 -5z m-358 -13 c3 -5 1 -10 -4
-10 -6 0 -11 5 -11 10 0 6 2 10 4 10 3 0 8 -4 11 -10z m-40 -30 c3 -5 1 -10
-4 -10 -6 0 -11 5 -11 10 0 6 2 10 4 10 3 0 8 -4 11 -10z m330 -91 c3 -36 -4
-41 -30 -22 -29 21 -32 40 -7 46 28 7 35 2 37 -24z m-225 -77 c0 -1 -9 2 -19
8 -16 8 -21 5 -30 -20 -6 -18 -6 -30 0 -30 5 0 9 4 9 8 0 5 16 9 35 9 19 0 35
-4 35 -9 0 -5 -3 -7 -7 -5 -5 3 -17 1 -28 -4 -14 -5 -6 -8 29 -8 27 -1 47 -4
43 -7 -3 -3 -36 -6 -72 -5 -65 1 -65 1 -54 -22 11 -20 11 -21 -5 -8 -22 19
-17 80 10 107 17 17 21 18 37 4 9 -8 17 -16 17 -18z m294 -27 c-4 -8 -8 -15
-10 -15 -2 0 -4 7 -4 15 0 8 4 15 10 15 5 0 7 -7 4 -15z m-189 -5 c3 -5 1 -10
-4 -10 -6 0 -11 5 -11 10 0 6 2 10 4 10 3 0 8 -4 11 -10z m-85 -67 c0 -14 -2
-15 -9 -4 -6 10 -13 10 -28 3 -15 -9 -20 -8 -20 4 0 9 11 14 29 14 20 0 28 -5
28 -17z m155 7 c3 -5 -1 -10 -9 -10 -8 0 -18 5 -21 10 -3 6 1 10 9 10 8 0 18
-4 21 -10z m-215 -34 c0 -2 -8 -10 -17 -17 -16 -13 -17 -12 -4 4 13 16 21 21
21 13z m80 -6 c0 -5 -5 -10 -11 -10 -5 0 -7 5 -4 10 3 6 8 10 11 10 2 0 4 -4
4 -10z m-80 -48 c0 -12 -3 -12 -15 -2 -8 7 -15 13 -15 15 0 1 7 2 15 2 8 0 15
-7 15 -15z m20 -77 c-5 -6 -7 -15 -3 -18 3 -4 1 -7 -6 -7 -9 0 -11 8 -7 23 3
12 6 31 6 42 1 18 2 17 11 -4 6 -15 6 -28 -1 -36z m67 -10 c0 -8 -4 -12 -9 -9
-4 3 -8 9 -8 15 0 5 4 9 8 9 5 0 9 -7 9 -15z m-27 1 c0 -3 -4 -8 -10 -11 -5
-3 -10 -1 -10 4 0 6 5 11 10 11 6 0 10 -2 10 -4z m21 -45 c-6 -10 -7 -21 -4
-25 3 -3 1 -6 -5 -6 -7 0 -12 4 -12 9 0 18 12 41 21 41 6 0 6 -8 0 -19z m-43
-28 c-7 -9 3 -11 42 -8 38 4 52 1 56 -10 4 -8 14 -15 23 -15 13 0 13 -2 2 -9
-7 -5 -10 -15 -7 -22 4 -8 1 -5 -8 6 -35 45 -35 46 -56 32 -22 -13 -26 -27 -9
-27 8 0 8 -4 0 -14 -8 -10 -9 -16 -1 -21 6 -3 8 -11 4 -16 -3 -6 -12 -2 -20
10 -8 11 -21 18 -29 15 -8 -4 -15 -1 -15 5 0 6 3 10 8 10 21 -4 23 3 5 19 -15
12 -19 25 -16 49 4 25 8 29 18 20 9 -8 10 -16 3 -24z m217 19 c-3 -3 -11 0
-18 7 -9 10 -8 11 6 5 10 -3 15 -9 12 -12z m75 -2 c0 -13 -7 -20 -20 -20 -11
0 -20 -4 -20 -10 0 -5 -5 -10 -10 -10 -6 0 -5 8 2 20 7 11 19 18 25 15 7 -2
13 2 13 10 0 8 2 15 5 15 3 0 5 -9 5 -20z m-174 -1 c-3 4 11 7 32 5 21 -1 36
-7 34 -13 -1 -7 7 -9 23 -5 20 5 24 3 19 -9 -3 -9 -12 -13 -20 -10 -8 3 -14
-1 -14 -7 0 -9 -6 -8 -18 3 -22 20 -53 24 -34 5 7 -7 12 -17 12 -22 0 -6 -7
-1 -15 11 -9 12 -31 25 -50 29 -19 3 -33 10 -30 14 3 5 19 5 35 0 17 -5 28 -5
26 -1z m59 -59 c3 -5 1 -10 -4 -10 -6 0 -11 5 -11 10 0 6 2 10 4 10 3 0 8 -4
11 -10z m45 -16 c0 -8 -5 -12 -10 -9 -6 4 -8 11 -5 16 9 14 15 11 15 -7z m35
-4 c3 -5 1 -10 -4 -10 -6 0 -11 5 -11 10 0 6 2 10 4 10 3 0 8 -4 11 -10z
m-181 -41 c-2 -4 3 -9 11 -13 9 -3 12 -12 8 -22 -5 -13 -3 -15 7 -9 9 5 11 4
6 -4 -10 -15 -26 -4 -26 17 0 13 -2 14 -9 3 -6 -9 -11 -10 -15 -2 -4 6 -3 11
2 11 5 0 7 15 5 33 -2 25 -1 28 6 12 5 -11 7 -23 5 -26z m81 32 c3 -5 1 -12
-4 -15 -5 -3 -11 1 -15 9 -6 16 9 21 19 6z m-15 -45 c6 -8 19 -12 28 -9 13 4
12 2 -3 -10 -11 -9 -24 -16 -30 -17 -5 0 -3 5 5 10 15 9 13 11 -12 14 -14 1
-24 26 -10 26 5 0 15 -6 22 -14z m-30 -66 c-12 -22 -25 -26 -35 -10 -5 8 19
24 43 29 1 1 -2 -8 -8 -19z m53 13 c-7 -2 -19 -2 -25 0 -7 3 -2 5 12 5 14 0
19 -2 13 -5z m-576 -90 c-3 -10 -5 -2 -5 17 0 19 2 27 5 18 2 -10 2 -26 0 -35z"/>
<path d="M2580 1344 c0 -8 5 -12 10 -9 6 4 8 11 5 16 -9 14 -15 11 -15 -7z"/>
<path d="M2890 760 c0 -11 4 -20 9 -20 5 0 7 9 4 20 -3 11 -7 20 -9 20 -2 0
-4 -9 -4 -20z"/>
<path d="M38 1283 c12 -2 30 -2 40 0 9 3 -1 5 -23 4 -22 0 -30 -2 -17 -4z"/>
<path d="M118 1283 c7 -3 16 -2 19 1 4 3 -2 6 -13 5 -11 0 -14 -3 -6 -6z"/>
<path d="M169 1230 c-24 -22 -47 -40 -51 -40 -4 0 -5 -7 -2 -15 5 -11 -2 -15
-27 -15 -19 0 -29 -4 -24 -8 25 -18 14 -32 -27 -33 -28 -1 -34 -3 -18 -6 14
-3 30 -9 37 -15 7 -5 16 -7 21 -4 18 11 342 18 342 7 0 -6 5 -11 11 -11 5 0 8
4 5 9 -8 12 47 19 75 9 13 -5 26 -5 32 1 5 5 16 7 23 4 8 -3 14 0 14 7 0 9
-51 11 -204 8 -167 -2 -206 0 -217 11 -11 13 -11 14 2 9 9 -3 40 -3 70 2 l54
8 -57 1 c-35 1 -58 5 -58 12 0 6 7 9 15 6 8 -4 17 -2 20 3 4 6 -4 11 -17 12
-13 0 0 4 27 8 l50 7 -40 2 c-36 3 -37 4 -15 11 17 5 19 8 8 9 -10 1 -18 6
-18 12 0 7 10 9 25 7 30 -6 32 -2 6 11 -15 8 -27 3 -62 -29z"/>
<path d="M2738 1243 c7 -3 16 -2 19 1 4 3 -2 6 -13 5 -11 0 -14 -3 -6 -6z"/>
<path d="M2295 1230 c-18 -8 -17 -9 8 -9 16 -1 26 3 22 9 -3 6 -7 10 -8 9 -1
0 -11 -4 -22 -9z"/>
<path d="M2354 1229 c-13 -5 -4 -8 29 -8 27 -1 47 -6 47 -12 0 -10 30 -9 69 2
7 2 15 -1 18 -8 3 -8 -14 -13 -54 -16 -33 -2 -10 -4 54 -5 64 -1 115 -6 118
-12 8 -13 275 -12 275 1 0 5 -10 9 -22 10 -22 1 -22 1 2 10 15 5 -13 6 -75 3
-107 -6 -124 4 -28 16 57 7 57 7 -32 10 -49 1 -103 4 -118 6 -24 2 -27 1 -17
-12 10 -12 8 -14 -16 -14 -16 0 -39 -3 -51 -6 -13 -4 -23 -2 -23 4 0 5 14 12
32 16 17 3 29 9 25 12 -9 9 -211 12 -233 3z m449 -56 c-29 -2 -78 -2 -110 0
-32 2 -8 3 52 3 61 0 87 -1 58 -3z"/>
<path d="M7 1223 c7 -2 19 -2 26 0 6 3 1 5 -13 5 -14 0 -19 -2 -13 -5z"/>
<path d="M2944 1205 c8 -8 25 -14 38 -14 20 1 21 2 3 6 -11 3 -24 9 -29 14
-17 16 -28 10 -12 -6z"/>
<path d="M1281 1148 c1 -35 4 -51 6 -36 3 20 8 25 20 21 10 -4 14 -2 10 4 -4
6 -1 14 5 16 10 4 9 8 -2 16 -8 6 -10 11 -4 11 5 0 16 -6 23 -12 10 -11 11
-10 6 5 -4 9 -11 17 -17 17 -5 0 -6 5 -3 10 4 6 -5 10 -19 10 -25 0 -26 -2
-25 -62z"/>
<path d="M1760 1177 c-22 -30 -22 -31 -2 -13 21 18 21 18 28 -10 19 -86 21
-88 20 -22 -1 78 -14 90 -46 45z"/>
<path d="M2333 1203 c9 -2 23 -2 30 0 6 3 -1 5 -18 5 -16 0 -22 -2 -12 -5z"/>
<path d="M297 1183 c18 -2 50 -2 70 0 21 2 7 4 -32 4 -38 0 -55 -2 -38 -4z"/>
<path d="M493 1183 c9 -2 25 -2 35 0 9 3 1 5 -18 5 -19 0 -27 -2 -17 -5z"/>
<path d="M2924 1168 c-3 -4 13 -8 35 -8 23 0 41 2 41 4 0 8 -71 12 -76 4z"/>
<path d="M290 1158 c0 -5 61 -8 135 -8 74 0 135 4 135 9 0 5 -61 8 -135 7 -74
0 -135 -4 -135 -8z"/>
<path d="M2577 1163 c-14 -14 -6 -20 19 -15 19 3 22 7 12 13 -16 11 -23 11
-31 2z"/>
<path d="M2448 1153 c6 -2 18 -2 25 0 6 3 1 5 -13 5 -14 0 -19 -2 -12 -5z"/>
<path d="M2490 1156 c0 -2 14 -6 30 -8 17 -3 30 -1 30 4 0 4 -13 8 -30 8 -16
0 -30 -2 -30 -4z"/>
<path d="M2530 1050 c0 -5 14 -10 32 -10 36 0 35 4 -4 14 -17 4 -28 2 -28 -4z"/>
<path d="M2618 1023 c6 -2 18 -2 25 0 6 3 1 5 -13 5 -14 0 -19 -2 -12 -5z"/>
<path d="M2736 902 c-3 -5 1 -9 9 -9 8 0 12 4 9 9 -3 4 -7 8 -9 8 -2 0 -6 -4
-9 -8z"/>
<path d="M2980 710 c0 -5 5 -10 10 -10 6 0 10 5 10 10 0 6 -4 10 -10 10 -5 0
-10 -4 -10 -10z"/>
<path d="M2905 171 c-3 -5 -1 -12 4 -15 5 -3 11 1 15 9 6 16 -9 21 -19 6z"/>
<path d="M2875 157 c-4 -10 -5 -21 -1 -24 10 -10 18 4 13 24 -4 17 -4 17 -12
0z"/>
<path d="M210 100 c0 -5 4 -10 9 -10 6 0 13 5 16 10 3 6 -1 10 -9 10 -9 0 -16
-4 -16 -10z"/>
<path d="M190 97 c0 -12 39 -46 44 -39 3 6 -5 17 -19 26 -14 9 -25 15 -25 13z"/>
<path d="M2980 90 c0 -5 5 -10 11 -10 5 0 7 5 4 10 -3 6 -8 10 -11 10 -2 0 -4
-4 -4 -10z"/>
<path d="M300 80 l-25 -8 28 -1 c15 -1 27 4 27 9 0 6 -1 10 -2 9 -2 -1 -14 -5
-28 -9z"/>
<path d="M2787 63 c-10 -10 -8 -23 4 -23 5 0 7 5 3 11 -4 8 0 9 15 4 41 -13
76 -16 66 -7 -13 13 -80 24 -88 15z"/>
<path d="M2913 62 c-45 -7 -22 -22 32 -22 30 0 55 4 55 9 0 10 -53 18 -87 13z"/>
</g>
</svg>
